<svg
    version="1.0"
    xmlns="http://www.w3.org/2000/svg"
    width="85.3"
    height="85.3"
    viewBox="0 0 64 64"
>
    <g fill="rgba(234,51,35,1)">
    <path
        d="M52 2c-1.1 1.1-2 2.3-2 2.7 0 .5-3 .8-6.8.8-7.5.1-11.9 1.9-19.1 7.9-2.3 2-6.1 4.1-8.4 4.7-12.9 3.5-12.2 3-12.5 7.6-.2 2.6.4 5.9 1.6 8.6C7.8 41 19.1 52.4 26.2 56c9.9 4.9 13.7 3.8 15.8-4.3.6-2.3 1.4-5.1 1.7-6.2.3-1.1 2.5-4.6 4.9-7.7 6.1-7.9 7.7-12 7.7-19.9-.1-5.7.1-6.6 2-7.5 3.2-1.3 3.5-6.7.5-8.8-3-2.1-4.4-2-6.8.4zm6.4 2.6c.7 1.9-1 4.4-3.1 4.4-1.7 0-2.7-2.4-1.9-4.5.7-2 4.2-1.9 5 .1zM43.3 12c-2.5 1.1-7.7 5.5-12.5 10.5-4.6 4.8-9.5 9.3-11 10.1-3.8 2-7.5 1.8-8.8-.5-1.5-3-1.2-4.1 1.3-4.1 3.9-.1 10.5-3.7 16-8.8C35.2 12.6 39.7 10 44 10h3.5l-4.2 2zM16.1 55.9c-.6 1.1-1.1 2.4-1.1 3 0 1.8 3.9 5.1 5.9 5.1 2 0 5.1-2.4 5.1-4 0-.6-5.3-4.4-8.2-5.8-.4-.2-1.1.6-1.7 1.7z"
    />
    </g>
</svg>
