<svg
viewBox="0 0 213 213"
xmlns="http://www.w3.org/2000/svg"
fill="#5e6167"
>
<path
    d="m131.8 106.49 75.936-75.936c6.99-6.99 6.99-18.323 0-25.312-6.99-6.99-18.322-6.99-25.312 0l-75.937 75.937L30.55 5.241c-6.99-6.99-18.322-6.99-25.312 0-6.989 6.99-6.989 18.323 0 25.312l75.937 75.936-75.937 75.937c-6.989 6.99-6.989 18.323 0 25.312 6.99 6.99 18.322 6.99 25.312 0l75.937-75.937 75.937 75.937c6.989 6.99 18.322 6.99 25.312 0s6.99-18.322 0-25.312L131.8 106.49z"
    clip-rule="evenodd"
    fill-rule="evenodd"
/>
</svg>
