<svg
    viewBox="0 0 36 36"
    xmlns="http://www.w3.org/2000/svg"
>
    <use
    class="ytp-svg-shadow"
    href="#ytp-id-18"
    />
    <path
    d="M23.94 18.78c.03-.25.05-.51.05-.78s-.02-.52-.05-.78l1.68-1.32c.15-.12.19-.33.09-.51l-1.6-2.76c-.09-.17-.31-.24-.48-.17l-1.99.8c-.41-.32-.86-.58-1.35-.78l-.3-2.12a.382.382 0 0 0-.39-.33h-3.2c-.2 0-.36.14-.39.33l-.3 2.12c-.48.2-.93.47-1.35.78l-1.99-.8c-.18-.07-.39 0-.48.17l-1.6 2.76c-.1.17-.05.39.09.51l1.68 1.32c-.03.25-.05.52-.05.78s.02.52.05.78l-1.68 1.32c-.15.12-.19.33-.09.51l1.6 2.76c.09.17.31.24.48.17l1.99-.8c.41.32.86.58 1.35.78l.3 2.12c.02.19.19.33.39.33h3.2c.2 0 .36-.14.39-.33l.3-2.12c.48-.2.93-.47 1.35-.78l1.99.8c.18.07.39 0 .48-.17l1.6-2.76c.09-.17.05-.39-.09-.51l-1.68-1.32zM18 20.79c-1.54 0-2.8-1.25-2.8-2.8 0-1.54 1.25-2.8 2.8-2.8 1.54 0 2.8 1.25 2.8 2.8 0 1.54-1.25 2.8-2.8 2.8z"
    fill="#fff"
    />
</svg>
